<svg xmlns="http://www.w3.org/2000/svg" width="103" height="102" viewBox="0 0 103 102">
    <g fill="none" fill-rule="evenodd">
        <g fill="#C2E3F2" fill-rule="nonzero">
            <g>
                <g>
                    <g transform="translate(-636 -203) translate(49 106) translate(609 89) translate(-21.123 8)">
                        <path d="M13.82 46c-.501 0-.977-.22-1.299-.604-.322-.384-.459-.89-.372-1.384 2.985-16.827 16.159-30.001 32.987-32.986.922-.162 1.8.454 1.962 1.376.161.922-.455 1.8-1.377 1.962-15.423 2.736-27.498 14.81-30.234 30.234-.142.81-.845 1.401-1.667 1.402zM57.819 91c-.88 0-1.613-.672-1.69-1.548-.075-.876.532-1.665 1.399-1.815 15.421-2.735 27.494-14.805 30.23-30.223.1-.6.515-1.1 1.086-1.31.571-.21 1.21-.098 1.676.294.466.392.685 1.003.576 1.601C88.11 74.821 74.939 87.99 58.113 90.974c-.097.017-.196.026-.294.026z"/>
                        <circle cx="13.123" cy="51" r="2"/>
                        <circle cx="51.123" cy="12" r="2"/>
                        <circle cx="90.123" cy="51" r="2"/>
                        <circle cx="51.123" cy="90" r="2"/>
                        <path d="M50.6 102c-20.415 0-38.82-12.421-46.633-31.47C-3.846 51.481.473 29.555 14.909 14.976 27.656 2.072 46.255-2.978 63.69 1.733c17.435 4.71 31.054 18.464 35.718 36.072 4.664 17.608-.336 36.391-13.114 49.264-9.446 9.591-22.298 14.968-35.693 14.93zm0-98.556c-19.054 0-36.233 11.592-43.525 29.37-7.292 17.78-3.261 38.244 10.213 51.852 18.398 18.58 48.227 18.58 66.626 0 18.398-18.58 18.398-48.706 0-67.287C75.098 8.427 63.102 3.41 50.6 3.444z"/>
                        <path d="M51.685 36.006c-.45.037-.866.252-1.158.6-.291.346-.435.795-.398 1.248l1.42 17.469c.228 2.654 2.437 4.689 5.08 4.677h8.794c.524 0 1.018-.243 1.34-.66.323-.415.437-.958.31-1.47l-1.7-6.857c-.144-.598-.595-1.073-1.181-1.243-.586-.171-1.218-.012-1.656.417-.438.429-.614 1.061-.462 1.657l1.172 4.727h-6.618c-.875.006-1.61-.664-1.691-1.542l-1.419-17.454c-.077-.944-.897-1.646-1.833-1.57z"/>
                        <circle cx="49.123" cy="65" r="2"/>
                        <circle cx="57.123" cy="63" r="2"/>
                        <path d="M48.12 57.707l-1.668-24.128c-.076-.94-.87-1.642-1.78-1.575-.909.068-1.597.879-1.544 1.82l1.662 24.057c-.028.931-.765 1.671-1.667 1.672h-10c-.878-.001-1.605-.707-1.66-1.613L33.1 47.772c.151-.939-.462-1.827-1.37-1.983-.908-.157-1.767.478-1.918 1.417l-1.667 10.34c-.003.017-.003.034-.005.05-.004.03-.008.06-.01.09-.003.03-.004.065-.005.097 0 .016-.003.03-.003.047v.077c.044 2.824 2.269 5.09 5 5.093h10c2.76-.003 4.997-2.316 5-5.17 0-.041-.001-.082-.004-.123zM63.217 66.667c-.988.002-1.972-.135-2.921-.407-.9-.253-1.839.252-2.103 1.131-.264.88.246 1.803 1.142 2.067 1.26.362 2.568.544 3.882.542 6.552 0 11.885-4.468 11.906-9.967V60v-.025c0-.046-.003-.093-.008-.14-.005-.046-.012-.089-.02-.133l-.005-.029v-.002l-.002-.012-1.698-8.319c-.184-.902-1.08-1.488-2.001-1.307-.921.18-1.519 1.058-1.335 1.96l1.664 8.15c-.098 3.61-3.872 6.524-8.5 6.524z"/>
                    </g>
                </g>
            </g>
        </g>
    </g>
</svg>
